Coordinates
version=1
nRows=24
nColumns=24
inDegrees=yes

Units are S.I. units (second, meters, Newtons, ...)
Angles are in degrees.

endheader
time	pelvis_tilt	pelvis_list	pelvis_rotation	pelvis_tx	pelvis_ty	pelvis_tz	hip_flexion_r	hip_adduction_r	hip_rotation_r	knee_angle_r	ankle_angle_r	subtalar_angle_r	mtp_angle_r	hip_flexion_l	hip_adduction_l	hip_rotation_l	knee_angle_l	ankle_angle_l	subtalar_angle_l	mtp_angle_l	lumbar_extension	lumbar_bending	lumbar_rotation
      0.74200000	     -3.30302176	     -0.14560275	     11.91610321	      0.01026528	      0.98081770	      0.24848106	     30.81462325	     -3.68514442	    -10.02086361	      1.55521896	     10.60184044	     -2.36493941	      5.88730127	    -19.28374314	      0.69699428	      9.98241695	     -7.73023815	     14.58677165	     -2.17005791	      0.94612169	      1.67356209	     -2.53946493	     -9.52592336
      0.74616667	     -3.29634323	     -0.24523275	     12.15001274	      0.01666700	      0.98002692	      0.24844922	     30.90589842	     -3.68391003	    -10.01853594	      0.86657722	     10.67990349	     -2.78838853	      5.90917782	    -19.53827605	      0.42863671	     10.00893789	     -7.87309024	     14.33110991	     -2.08080460	      0.96178782	      1.77761568	     -2.44683484	     -9.74983335
      0.75033333	     -3.28130428	     -0.35817837	     12.40142465	      0.02307801	      0.97927822	      0.24841479	     30.99304009	     -3.67485635	    -10.09026279	      0.14656848	     10.71262482	     -3.16784313	      5.92279589	    -19.77304859	      0.13752956	     10.02472840	     -8.06156871	     14.08058983	     -1.97234298	      0.97179841	      1.84006454	     -2.35651881	     -9.84387710
      0.75450000	     -3.27558001	     -0.47148983	     12.64360004	      0.02955639	      0.97851986	      0.24841736	     31.04170752	     -3.64452743	     -9.94340031	     -0.48268416	     10.49297197	     -3.95677123	      6.01944347	    -19.98516666	     -0.15666110	      9.95842733	     -8.27452073	     13.85475069	     -1.75129357	      1.08955970	      1.96036037	     -2.23302448	    -10.32209523
      0.75866667	     -3.26305278	     -0.59994519	     12.87138748	      0.03608883	      0.97778767	      0.24846187	     31.10165119	     -3.58980263	     -9.86375521	     -1.16236154	     10.28776884	     -4.62032662	      6.15622299	    -20.20243914	     -0.46582303	      9.89107762	     -8.48261454	     13.57828242	     -1.57183321	      1.25653869	      2.07112129	     -2.10533231	    -10.56140376
      0.76283333	     -3.24796883	     -0.73020435	     13.10375637	      0.04266113	      0.97709786	      0.24851408	     31.17551132	     -3.53752382	     -9.89287953	     -1.89885810	     10.14939389	     -5.06786046	      6.21502501	    -20.41755045	     -0.78023883	      9.84514385	     -8.68923437	     13.20569771	     -1.44219632	      1.32581768	      2.21856648	     -1.97144995	    -10.68270706
      0.76700000	     -3.23347158	     -0.87690960	     13.30957124	      0.04926423	      0.97639489	      0.24867736	     31.21856727	     -3.42893196	     -9.69052818	     -2.54563759	      9.68903458	     -5.99997115	      6.41889816	    -20.61689868	     -1.10927566	      9.75171685	     -8.92586141	     12.93458558	     -1.25850570	      1.59530929	      2.29753280	     -1.84868771	    -11.04530377
      0.77116667	     -3.22894162	     -1.03572042	     13.50951967	      0.05592552	      0.97571339	      0.24885088	     31.28949889	     -3.30957577	     -9.57942576	     -3.23733843	      9.25681659	     -6.75710539	      6.66018762	    -20.79724013	     -1.44763858	      9.64510551	     -9.16591205	     12.56593852	     -1.11070392	      1.91924481	      2.44105111	     -1.69537571	    -11.25577563
      0.77533333	     -3.21896164	     -1.19030732	     13.69475777	      0.06261711	      0.97505749	      0.24907925	     31.37428963	     -3.18478598	     -9.51716155	     -3.96640768	      8.77365401	     -7.42379410	      9.10742114	    -20.97777390	     -1.78549539	      9.49755347	     -9.40276191	     12.09007958	     -0.93507266	      5.32961173	      2.58446848	     -1.56872608	    -11.38066204
      0.77950000	     -3.20882331	     -1.37188582	     13.87558604	      0.06934922	      0.97444041	      0.24933009	     31.45319129	     -3.02120113	     -9.42092735	     -4.68154408	      8.24045317	     -8.15781511	      9.12742409	    -21.14479364	     -2.14468203	      9.38983621	     -9.66175641	     11.64505235	     -0.85448915	      5.39496265	      2.72716046	     -1.39021167	    -11.64184390
      0.78366667	     -3.22029444	     -1.55371530	     14.03548544	      0.07610467	      0.97381723	      0.24964698	     31.56486722	     -2.84414858	     -9.28871436	     -5.40904583	      7.64867745	     -8.91614747	      9.18441998	    -21.27528335	     -2.49513008	      9.25035572	     -9.94426959	     11.17887398	     -0.73785858	      5.52991262	      2.90288417	     -1.22891348	    -11.82910993
      0.78783333	     -3.21314333	     -1.75168006	     14.17682813	      0.08289610	      0.97324501	      0.25001576	     31.66862212	     -2.63248810	     -9.15767636	     -6.15163753	      7.01766366	     -9.66268316	      9.27181172	    -21.41465903	     -2.86263749	      9.07767043	    -10.23667850	     10.68313614	     -0.62154097	      5.72881416	      3.06059539	     -1.04106350	    -12.00251018
      0.79200000	     -3.14918235	     -1.97570061	     14.30705711	      0.08972668	      0.97278225	      0.25042767	     31.71698376	     -2.36940444	     -9.03888068	     -6.89070648	      6.34906446	    -10.41686688	     10.25157095	    -21.60067478	     -3.27573431	      8.83057791	    -10.52991578	     10.11466980	     -0.39743661	      7.87909757	      3.16382684	     -0.80401466	    -12.02288179
      0.79616667	     -3.22594159	     -2.16454395	     14.40696100	      0.09652977	      0.97215701	      0.25090149	     31.95988690	     -2.16504173	     -8.91152477	     -7.73628940	      5.72226037	    -11.01326292	     10.29094590	    -21.62113440	     -3.59510400	      8.67477858	    -10.87928260	      9.53969745	     -0.40659208	      8.00999254	      3.42128340	     -0.66823093	    -12.29016081
      0.80033333	     -3.22405491	     -2.38026189	     14.49361355	      0.10337416	      0.97168615	      0.25142148	     32.11143460	     -1.89663314	     -8.75030219	     -8.55150429	      5.03244130	    -11.71294060	     10.37359724	    -21.71712514	     -3.96353512	      8.45678954	    -11.22120473	      8.92156488	     -0.30730047	      8.27171224	      3.59060538	     -0.48868339	    -12.41735041
      0.80450000	     -3.15920261	     -2.64484159	     14.56831038	      0.11026773	      0.97132196	      0.25195750	     32.20961251	     -1.56071470	     -8.65183047	     -9.37807207	      4.38499940	    -12.31161866	     11.18693752	    -21.85715475	     -4.39848956	      8.15206094	    -11.57857745	      8.25275687	     -0.13308516	     10.81883106	      3.70212272	     -0.18104502	    -12.43387781
      0.80866667	     -3.24488564	     -2.85722071	     14.59499490	      0.11712333	      0.97078112	      0.25258125	     32.51512529	     -1.29287061	     -8.48220587	    -10.33140242	      3.84599048	    -12.76570924	     11.20318734	    -21.82746219	     -4.71328677	      7.93083204	    -11.99020747	      7.56820444	     -0.16665108	     10.93188532	      3.98112031	     -0.01253216	    -12.60181629
      0.81283333	     -3.23236624	     -3.09787078	     14.61489479	      0.12401719	      0.97042468	      0.25324429	     32.70487904	     -0.95810668	     -8.30692609	    -11.24594629	      3.23425324	    -13.32706467	     11.24717484	    -21.89229753	     -5.08595190	      7.65070682	    -12.39519225	      6.84131456	     -0.08766288	     11.21205933	      4.14107742	      0.20140926	    -12.67819391
      0.81700000	     -3.22066248	     -3.34114211	     14.60529755	      0.13093401	      0.97009838	      0.25390931	     32.93159317	     -0.62319256	     -8.21083579	    -12.25657280	      2.85609791	    -13.53507446	     11.26056894	    -21.94811647	     -5.44391200	      7.35835055	    -12.81801080	      6.05942270	     -0.05286005	     11.30995152	      4.33161023	      0.47061001	    -12.72817503
      0.82116667	     -3.22337775	     -3.60687166	     14.58655968	      0.13785794	      0.96977718	      0.25466812	     33.15655478	     -0.24015626	     -8.00077142	    -13.21101180	      2.32425906	    -14.06490294	     11.83105878	    -21.94682240	     -5.83117072	      6.98481992	    -13.29652207	      5.21781402	      0.03579319	     15.54980443	      4.49293320	      0.72507099	    -12.76366883
      0.82533333	     -3.20706147	     -3.86534007	     14.53848341	      0.14479634	      0.96952616	      0.25542850	     33.37743562	      0.14495199	     -7.83542940	    -14.21728869	      1.94233926	    -14.36594201	     11.82007206	    -21.96959206	     -6.19114963	      6.66500583	    -13.78328604	      4.37882050	      0.02764212	     15.61141822	      4.66477152	      1.00509312	    -12.79698778
      0.82950000	     -3.16810199	     -4.11393020	     14.48722364	      0.15172712	      0.96935810	      0.25619663	     33.58301535	      0.52031260	     -7.73308240	    -15.26075103	      1.67503442	    -14.49260581	     11.81512706	    -21.99472825	     -6.54624984	      6.32601932	    -14.30168231	      3.47278029	      0.05286629	     15.63359641	      4.75637646	      1.23507240	    -12.82944395
      0.83366667	     -3.14062146	     -4.37507564	     14.39528118	      0.15871078	      0.96919866	      0.25705576	     33.77345310	      0.95339448	     -7.47908173	    -16.23211306	      1.24299863	    -14.93886206	     11.78355382	    -22.00204278	     -6.89986528	      5.94793053	    -14.83460520	      2.56987608	      0.10485991	     15.98998541	      4.94090804	      1.52487436	    -12.79501557
      0.83783333	     -3.08389942	     -4.62255197	     14.29788588	      0.16567806	      0.96912623	      0.25789037	     33.94402822	      1.36415022	     -7.33521548	    -17.25794839	      1.07613912	    -14.99390825	     11.77524203	    -22.01950854	     -7.23947034	      5.56632556	    -15.40375393	      1.59695790	      0.11515852	     16.07777985	      5.04743888	      1.81714980	    -12.82694878
